<svg width="41" height="40" viewBox="0 0 41 40" fill="none" xmlns="http://www.w3.org/2000/svg">
<path d="M3.69949 25.9691C4.24912 25.05 5.30736 23.847 6.73543 21.8626C9.77569 17.7095 13.1458 13.485 16.0759 10.1043C18.4564 7.38484 20.0686 5.76814 22.0091 4.22563C23.2174 3.19712 23.9506 2.71888 25.0126 2.0944C25.0126 3.08663 24.9386 3.63799 24.72 4.59393C24.4635 5.65819 23.5116 8.45019 22.4485 11.2081C22.1554 11.9057 21.826 12.7869 21.4961 13.7049L20.8731 15.3947C19.1891 19.8039 17.9435 23.6629 17.9435 24.36C17.9435 24.5798 18.1633 24.7293 18.4559 24.7293C19.4445 24.6903 21.4222 23.8102 22.0085 23.1478C22.4118 22.6707 23.6574 20.9803 24.7567 19.401C25.4526 18.3719 26.0023 17.5633 26.918 16.3154L30.2136 11.7952C31.0569 10.6556 31.7156 9.7755 32.1918 9.18569C32.9979 8.12143 33.4731 7.53216 34.5729 6.13643C34.4622 6.76091 34.3893 7.1292 34.1695 8.19346C33.1442 12.9705 32.7409 15.6157 32.7409 17.8569C32.7409 20.7236 33.5827 23.1484 35.0113 24.4347C35.7072 24.9861 36.2936 25.2801 37.3561 25.5011L40.9088 23.9938C37.7227 22.8543 36.2936 20.3201 36.2936 15.9109C36.2936 13.5597 36.7331 10.3989 37.4652 7.5327C37.7951 6.21063 37.9792 5.14583 37.9792 4.40978C37.9792 4.1146 37.8685 3.931 37.6855 3.931C37.6126 3.931 37.5019 3.96783 37.1358 4.07886C36.4032 4.29875 35.488 4.63022 34.7921 4.9606C33.8024 5.43776 33.5098 5.65819 32.7037 6.61305L31.3485 8.22975C30.4695 9.29564 30.2865 9.5529 28.3455 12.0519C26.8785 13.9621 25.4148 15.9103 23.949 17.8211L21.9723 20.4669C22.0814 19.4746 22.8146 17.4902 23.8761 15.2485C25.4877 11.9062 27.0988 7.42275 28.0145 3.82268C28.345 2.60947 28.4546 1.94709 28.4546 1.28686C28.4546 0.405124 28.1981 0 27.6485 0C27.2451 0 26.878 0.0736595 26.2576 0.329841C23.4361 1.43256 22.4108 2.05811 20.433 3.85842C18.5649 5.58616 15.4145 9.00208 12.7042 12.3086C10.6169 14.8081 7.57661 18.7402 5.37916 21.7153C4.74207 22.5775 4.31067 23.1191 3.80585 23.9418C3.22437 24.7255 3.00354 25.1052 2.49818 25.9696L3.69949 25.9691Z" fill="white"/>
<path d="M0.820669 29.8622L0 39.8657H1.25692L1.64026 32.9667H1.66725L2.94901 39.8657H3.86309L4.89486 34.4003L5.12001 32.9667H5.14538L5.17238 34.2817L5.25174 36.1389L5.48877 39.8657H6.78618L5.85969 29.8622H4.69617L3.83663 34.2665L3.43925 36.6691L3.3993 37.0796H3.37284L1.95773 29.8622H0.820669Z" fill="white"/>
<path fill-rule="evenodd" clip-rule="evenodd" d="M11.5029 29.8622L9.3335 39.8662H10.6298L11.0008 37.9153H12.9844L13.3548 39.8662H14.6911L12.5481 29.8622H11.5029ZM12.7862 36.8809H11.1989L11.9926 31.799H12.019L12.5222 35.4348L12.7862 36.8809Z" fill="white"/>
<path d="M17.7556 29.8622V39.8657H21.3002V38.711H19.0773V29.8622H17.7556Z" fill="white"/>
<path d="M25.6556 29.8632H24.3323V39.8662H25.6556V29.8632Z" fill="white"/>
<path d="M32.5606 30.0609C32.1373 29.8102 31.6611 29.7289 31.1584 29.7289C29.6634 29.7289 28.9227 30.8831 28.9227 32.2902C28.9227 34.9181 31.714 35.3156 31.714 37.3066C31.714 38.0491 31.369 38.6996 30.5494 38.6996C30.0338 38.6996 29.6375 38.4732 29.2396 38.1813V39.5228C29.6499 39.8538 30.1801 40 30.6947 40C32.1632 40 33.0363 38.7928 33.0363 37.3862C33.0363 36.0333 32.5212 35.3698 31.6217 34.4539L30.6158 33.3528C30.3513 33.0078 30.2454 32.7024 30.2454 32.2642C30.2454 31.5747 30.6947 30.9779 31.4225 30.9779C31.8728 30.9779 32.2032 31.149 32.5471 31.402L32.5606 30.0609Z" fill="white"/>
<path d="M36.3567 29.8622V39.8657H37.6801V34.9175H39.6777V39.8657H41V29.8622H39.6777V33.7645H37.6801V29.8622H36.3567Z" fill="white"/>
</svg>
