<svg width="1388" height="1505" viewBox="0 0 1388 1505" fill="none" xmlns="http://www.w3.org/2000/svg">
<path d="M5.01306 1158.95C7.61565 1032.7 108.202 930.87 232.887 928.234V1158.95H5.01306Z" stroke="#E8D5CB" stroke-opacity="0.1"/>
<path d="M232.946 5.01562C235.548 131.262 336.135 233.099 460.82 235.735V5.01562H232.946Z" stroke="#E8D5CB" stroke-opacity="0.1"/>
<path d="M460.878 1158.95C463.48 1032.7 564.067 930.87 688.752 928.234V1158.95H460.878Z" stroke="#E8D5CB" stroke-opacity="0.1"/>
<path d="M232.829 928.168C230.226 801.922 129.64 700.085 4.95508 697.449V928.168H232.829Z" stroke="#E8D5CB" stroke-opacity="0.1"/>
<path d="M460.761 235.805C458.159 362.051 357.572 463.888 232.887 466.524V235.805H460.761Z" stroke="#E8D5CB" stroke-opacity="0.1"/>
<path d="M460.761 1389.74C458.159 1515.99 357.572 1617.83 232.887 1620.46V1389.74H460.761Z" stroke="#E8D5CB" stroke-opacity="0.1"/>
<path d="M688.693 928.168C686.091 801.922 585.504 700.085 460.82 697.449V928.168H688.693Z" stroke="#E8D5CB" stroke-opacity="0.1"/>
<path d="M5.01306 697.379C7.61565 571.133 108.202 469.296 232.887 466.66V697.379H5.01306Z" stroke="#E8D5CB" stroke-opacity="0.1"/>
<path d="M232.829 1158.95C230.226 1285.2 129.64 1387.04 4.95508 1389.67V1158.95H232.829Z" stroke="#E8D5CB" stroke-opacity="0.1"/>
<path d="M232.946 466.594C235.548 592.84 336.135 694.677 460.82 697.313V466.594H232.946Z" stroke="#E8D5CB" stroke-opacity="0.1"/>
<path d="M232.946 1158.95C235.548 1285.2 336.135 1387.04 460.82 1389.67V1158.95H232.946Z" stroke="#E8D5CB" stroke-opacity="0.1"/>
<path d="M460.878 697.379C463.48 571.133 564.067 469.296 688.752 466.66V697.379H460.878Z" stroke="#E8D5CB" stroke-opacity="0.1"/>
<path d="M460.8 1159C585.485 1161.64 686.062 1263.48 688.665 1389.73H460.8V1159Z" stroke="#E8D5CB" stroke-opacity="0.1"/>
<path d="M5.01306 235.805C7.61565 362.051 108.202 463.888 232.887 466.524V235.805H5.01306Z" stroke="#E8D5CB" stroke-opacity="0.1"/>
<path d="M5.01306 1389.74C7.61565 1515.99 108.202 1617.83 232.887 1620.46V1389.74H5.01306Z" stroke="#E8D5CB" stroke-opacity="0.1"/>
<path d="M232.946 928.168C235.548 801.922 336.135 700.085 460.82 697.449V928.168H232.946Z" stroke="#E8D5CB" stroke-opacity="0.1"/>
<path d="M460.878 235.805C463.48 362.051 564.067 463.888 688.752 466.524V235.805H460.878Z" stroke="#E8D5CB" stroke-opacity="0.1"/>
<path d="M460.878 1389.74C463.48 1515.99 564.067 1617.83 688.752 1620.46V1389.74H460.878Z" stroke="#E8D5CB" stroke-opacity="0.1"/>
<path d="M232.829 235.805C230.226 109.558 129.64 7.72124 4.95508 5.08594V235.805H232.829Z" stroke="#E8D5CB" stroke-opacity="0.1"/>
<path d="M460.761 928.168C458.159 1054.42 357.572 1156.26 232.887 1158.89V928.168H460.761Z" stroke="#E8D5CB" stroke-opacity="0.1"/>
<path d="M688.693 235.805C686.091 109.558 585.504 7.72124 460.82 5.08594V235.805H688.693Z" stroke="#E8D5CB" stroke-opacity="0.1"/>
<path d="M698.72 1159.62C701.323 1033.37 801.909 931.538 926.594 928.902V1159.62H698.72Z" stroke="#E8D5CB" stroke-opacity="0.1"/>
<path d="M926.653 5.68359C929.255 131.93 1029.84 233.767 1154.53 236.403V5.68359H926.653Z" stroke="#E8D5CB" stroke-opacity="0.1"/>
<path d="M1154.58 1159.62C1157.19 1033.37 1257.77 931.538 1382.46 928.902V1159.62H1154.58Z" stroke="#E8D5CB" stroke-opacity="0.1"/>
<path d="M926.536 928.836C923.933 802.59 823.347 700.753 698.662 698.117V928.836H926.536Z" stroke="#E8D5CB" stroke-opacity="0.1"/>
<path d="M1154.47 236.473C1151.87 362.719 1051.28 464.556 926.594 467.192V236.473H1154.47Z" stroke="#E8D5CB" stroke-opacity="0.1"/>
<path d="M1154.47 1390.41C1151.87 1516.66 1051.28 1618.5 926.594 1621.13V1390.41H1154.47Z" stroke="#E8D5CB" stroke-opacity="0.1"/>
<path d="M1382.4 928.836C1379.8 802.59 1279.21 700.753 1154.53 698.117V928.836H1382.4Z" stroke="#E8D5CB" stroke-opacity="0.1"/>
<path d="M698.72 698.047C701.323 571.801 801.909 469.964 926.594 467.328V698.047H698.72Z" stroke="#E8D5CB" stroke-opacity="0.1"/>
<path d="M926.536 1159.62C923.933 1285.87 823.347 1387.71 698.662 1390.34V1159.62H926.536Z" stroke="#E8D5CB" stroke-opacity="0.1"/>
<path d="M926.653 467.258C929.255 593.505 1029.84 695.341 1154.53 697.977V467.258H926.653Z" stroke="#E8D5CB" stroke-opacity="0.1"/>
<path d="M926.653 1159.62C929.255 1285.87 1029.84 1387.71 1154.53 1390.34V1159.62H926.653Z" stroke="#E8D5CB" stroke-opacity="0.1"/>
<path d="M1154.58 698.047C1157.19 571.801 1257.77 469.964 1382.46 467.328V698.047H1154.58Z" stroke="#E8D5CB" stroke-opacity="0.1"/>
<path d="M1154.51 1159.67C1279.19 1162.31 1379.77 1264.15 1382.37 1390.4H1154.51V1159.67Z" stroke="#E8D5CB" stroke-opacity="0.1"/>
<path d="M698.72 236.473C701.323 362.719 801.909 464.556 926.594 467.192V236.473H698.72Z" stroke="#E8D5CB" stroke-opacity="0.1"/>
<path d="M698.72 1390.41C701.323 1516.66 801.909 1618.5 926.594 1621.13V1390.41H698.72Z" stroke="#E8D5CB" stroke-opacity="0.1"/>
<path d="M926.653 928.836C929.255 802.59 1029.84 700.753 1154.53 698.117V928.836H926.653Z" stroke="#E8D5CB" stroke-opacity="0.1"/>
<path d="M1154.58 236.473C1157.19 362.719 1257.77 464.556 1382.46 467.192V236.473H1154.58Z" stroke="#E8D5CB" stroke-opacity="0.1"/>
<path d="M1154.58 1390.41C1157.19 1516.66 1257.77 1618.5 1382.46 1621.13V1390.41H1154.58Z" stroke="#E8D5CB" stroke-opacity="0.1"/>
<path d="M926.536 236.473C923.933 110.226 823.347 8.38921 698.662 5.75391V236.473H926.536Z" stroke="#E8D5CB" stroke-opacity="0.1"/>
<path d="M1154.47 928.836C1151.87 1055.09 1051.28 1156.92 926.594 1159.55V928.836H1154.47Z" stroke="#E8D5CB" stroke-opacity="0.1"/>
<path d="M1382.4 236.473C1379.8 110.226 1279.21 8.38921 1154.53 5.75391V236.473H1382.4Z" stroke="#E8D5CB" stroke-opacity="0.1"/>
</svg>
