<svg width="80" height="80" viewBox="0 0 80 80" fill="none" xmlns="http://www.w3.org/2000/svg">
<path fill-rule="evenodd" clip-rule="evenodd" d="M74.5432 1.68975C77.1378 -0.500687 80.6397 2.99925 78.4494 5.59332L50.847 38.2727C49.9754 39.3048 49.9753 40.8144 50.847 41.8465L78.4494 74.5259C80.6393 77.1199 77.1377 80.6198 74.5432 78.4294L41.857 50.8342C40.8246 49.9626 39.3131 49.9626 38.2807 50.8342L5.5945 78.4294C2.99977 80.6198 -0.500965 77.1199 1.68992 74.5259L29.2922 41.8465C30.1634 40.8146 30.1633 39.3046 29.2922 38.2727L1.68992 5.59332C-0.501207 2.9992 2.99972 -0.50082 5.5945 1.68975L38.2807 29.285C39.313 30.1565 40.8246 30.1565 41.857 29.285L74.5432 1.68975ZM32.1093 31.133C31.4653 30.5893 30.5958 31.4573 31.1392 32.1013L37.9911 40.214C38.2074 40.4702 38.2074 40.844 37.9911 41.1002L31.1392 49.213C30.5959 49.8569 31.4653 50.7249 32.1093 50.1812L40.2225 43.3311C40.4786 43.1148 40.8543 43.1151 41.1105 43.3311L49.2254 50.1812C49.8695 50.725 50.7378 49.8569 50.1939 49.213L43.342 41.1002C43.1261 40.8442 43.1262 40.47 43.342 40.214L50.1939 32.1013C50.7378 31.4573 49.8695 30.5892 49.2254 31.133L41.1105 37.9815C40.8543 38.1979 40.4788 38.1979 40.2225 37.9815L32.1093 31.133Z" stroke="url(#paint0_linear_824_9)"/>
<defs>
<linearGradient id="paint0_linear_824_9" x1="1506.5" y1="-36.8828" x2="1504" y2="79.1172" gradientUnits="userSpaceOnUse">
<stop stop-color="#FAEEE6"/>
<stop offset="1" stop-color="#E8D5CB"/>
</linearGradient>
</defs>
</svg>
