<svg width="80" height="80" viewBox="0 0 80 80" fill="none" xmlns="http://www.w3.org/2000/svg">
<path fill-rule="evenodd" clip-rule="evenodd" d="M74.5432 1.57256C77.1378 -0.617875 80.6397 2.88206 78.4494 5.47613L50.847 38.1555C49.9754 39.1876 49.9753 40.6972 50.847 41.7293L78.4494 74.4087C80.6393 77.0027 77.1377 80.5026 74.5432 78.3122L41.857 50.717C40.8246 49.8454 39.3131 49.8454 38.2807 50.717L5.5945 78.3122C2.99977 80.5027 -0.500965 77.0027 1.68992 74.4087L29.2922 41.7293C30.1634 40.6974 30.1633 39.1875 29.2922 38.1555L1.68992 5.47613C-0.501207 2.88201 2.99972 -0.618008 5.5945 1.57256L38.2807 29.1678C39.313 30.0393 40.8246 30.0393 41.857 29.1678L74.5432 1.57256ZM32.1093 31.0158C31.4653 30.4721 30.5958 31.3402 31.1392 31.9841L37.9911 40.0968C38.2074 40.353 38.2074 40.7269 37.9911 40.983L31.1392 49.0958C30.5959 49.7397 31.4653 50.6077 32.1093 50.064L40.2225 43.2139C40.4786 42.9976 40.8543 42.9979 41.1105 43.2139L49.2254 50.064C49.8695 50.6078 50.7378 49.7397 50.1939 49.0958L43.342 40.983C43.1261 40.727 43.1262 40.3529 43.342 40.0968L50.1939 31.9841C50.7378 31.3401 49.8695 30.472 49.2254 31.0158L41.1105 37.8644C40.8543 38.0807 40.4788 38.0807 40.2225 37.8644L32.1093 31.0158Z" stroke="#E8D5CB"/>
</svg>
