<svg width="208" height="122" viewBox="0 0 208 122" fill="none" xmlns="http://www.w3.org/2000/svg">
<path d="M104 0.5C132.684 0.5 158.633 4.02252 177.395 9.70508C186.778 12.5473 194.336 15.9215 199.536 19.6455C204.749 23.3783 207.5 27.391 207.5 31.5C207.5 35.609 204.749 39.6217 199.536 43.3545C194.336 47.0785 186.778 50.4527 177.395 53.2949C158.633 58.9775 132.684 62.5 104 62.5C75.3162 62.5 49.3669 58.9775 30.6055 53.2949C21.2218 50.4527 13.6643 47.0785 8.46387 43.3545C3.25129 39.6217 0.5 35.609 0.5 31.5C0.5 27.391 3.25129 23.3783 8.46387 19.6455C13.6643 15.9215 21.2218 12.5473 30.6055 9.70508C49.3669 4.02252 75.3162 0.5 104 0.5Z" stroke="#AD8775"/>
<path d="M104 11.5C132.684 11.5 158.633 15.0225 177.395 20.7051C186.778 23.5473 194.336 26.9215 199.536 30.6455C204.749 34.3783 207.5 38.391 207.5 42.5C207.5 46.609 204.749 50.6217 199.536 54.3545C194.336 58.0785 186.778 61.4527 177.395 64.2949C158.633 69.9775 132.684 73.5 104 73.5C75.3162 73.5 49.3669 69.9775 30.6055 64.2949C21.2218 61.4527 13.6643 58.0785 8.46387 54.3545C3.25129 50.6217 0.5 46.609 0.5 42.5C0.5 38.391 3.25129 34.3783 8.46387 30.6455C13.6643 26.9215 21.2218 23.5473 30.6055 20.7051C49.3669 15.0225 75.3162 11.5 104 11.5Z" stroke="#AD8775"/>
<path d="M104 42.5C132.69 42.5 158.648 45.408 177.418 50.1006C186.807 52.4478 194.369 55.2351 199.572 58.3105C204.809 61.4058 207.5 64.6961 207.5 68C207.5 71.3039 204.809 74.5942 199.572 77.6895C194.369 80.7649 186.807 83.5522 177.418 85.8994C158.648 90.592 132.69 93.5 104 93.5C75.3098 93.5 49.3523 90.592 30.582 85.8994C21.1932 83.5522 13.631 80.7649 8.42773 77.6895C3.19093 74.5942 0.5 71.3039 0.5 68C0.5 64.6961 3.19093 61.4058 8.42773 58.3105C13.631 55.2351 21.1932 52.4478 30.582 50.1006C49.3523 45.408 75.3098 42.5 104 42.5Z" stroke="#AD8775"/>
<path d="M104 52.5C132.69 52.5 158.648 55.408 177.418 60.1006C186.807 62.4478 194.369 65.2351 199.572 68.3105C204.809 71.4058 207.5 74.6961 207.5 78C207.5 81.3039 204.809 84.5942 199.572 87.6895C194.369 90.7649 186.807 93.5522 177.418 95.8994C158.648 100.592 132.69 103.5 104 103.5C75.3098 103.5 49.3523 100.592 30.582 95.8994C21.1932 93.5522 13.631 90.7649 8.42773 87.6895C3.19093 84.5942 0.5 81.3039 0.5 78C0.5 74.6961 3.19093 71.4058 8.42773 68.3105C13.631 65.2351 21.1932 62.4478 30.582 60.1006C49.3523 55.408 75.3098 52.5 104 52.5Z" stroke="#AD8775"/>
<path d="M104 82.5C132.701 82.5 158.675 84.2902 177.463 87.1807C186.861 88.6265 194.439 90.3445 199.656 92.2422C202.268 93.1921 204.259 94.1762 205.587 95.1748C206.927 96.1822 207.5 97.1313 207.5 98C207.5 98.8687 206.927 99.8178 205.587 100.825C204.259 101.824 202.268 102.808 199.656 103.758C194.439 105.656 186.861 107.373 177.463 108.819C158.675 111.71 132.701 113.5 104 113.5C75.2986 113.5 49.3253 111.71 30.5371 108.819C21.1391 107.373 13.5611 105.656 8.34375 103.758C5.73219 102.808 3.74134 101.824 2.41309 100.825C1.07321 99.8178 0.5 98.8687 0.5 98C0.5 97.1313 1.07321 96.1822 2.41309 95.1748C3.74134 94.1762 5.73219 93.1921 8.34375 92.2422C13.5611 90.3445 21.1391 88.6265 30.5371 87.1807C49.3253 84.2902 75.2986 82.5 104 82.5Z" stroke="#AD8775"/>
<path d="M104 90.5C132.701 90.5 158.675 92.2902 177.463 95.1807C186.861 96.6265 194.439 98.3445 199.656 100.242C202.268 101.192 204.259 102.176 205.587 103.175C206.927 104.182 207.5 105.131 207.5 106C207.5 106.869 206.927 107.818 205.587 108.825C204.259 109.824 202.268 110.808 199.656 111.758C194.439 113.656 186.861 115.373 177.463 116.819C158.675 119.71 132.701 121.5 104 121.5C75.2986 121.5 49.3253 119.71 30.5371 116.819C21.1391 115.373 13.5611 113.656 8.34375 111.758C5.73219 110.808 3.74134 109.824 2.41309 108.825C1.07321 107.818 0.5 106.869 0.5 106C0.5 105.131 1.07321 104.182 2.41309 103.175C3.74134 102.176 5.73219 101.192 8.34375 100.242C13.5611 98.3445 21.1391 96.6265 30.5371 95.1807C49.3253 92.2902 75.2986 90.5 104 90.5Z" stroke="#AD8775"/>
</svg>
