<svg width="108" height="62" viewBox="0 0 108 62" fill="none" xmlns="http://www.w3.org/2000/svg">
<mask id="path-1-inside-1_4_507" fill="white">
<path fill-rule="evenodd" clip-rule="evenodd" d="M48.5 30C48.7991 30.0002 49.0923 30.083 49.3467 30.2393C49.6011 30.3956 49.8066 30.6191 49.9403 30.8849L51.2357 33.4563C53.9369 33.9717 56.4348 35.2396 58.4378 37.1119C60.4408 38.9842 61.8663 41.3838 62.5478 44.0305C63.2294 46.6771 63.1389 49.4618 62.287 52.0593C61.435 54.6568 59.8567 56.9601 57.7363 58.7003C55.616 60.4405 53.041 61.5457 50.3119 61.8871C47.5828 62.2285 44.8123 61.7919 42.3237 60.6282C39.8351 59.4646 37.731 57.6219 36.2572 55.3153C34.7834 53.0087 34.0005 50.3333 34 47.6014C33.9994 44.253 35.1736 41.009 37.3207 38.4274C39.4678 35.8458 42.4535 34.088 45.7643 33.4563L47.0597 30.8849C47.1934 30.6191 47.3989 30.3956 47.6533 30.2393C47.9077 30.083 48.2009 30.0002 48.5 30ZM37.2432 46.9022C37.1373 48.5642 37.4059 50.2287 38.0294 51.7746C38.4719 51.9143 38.7136 51.989 38.7544 51.9986C41.4272 52.6578 44.3594 52.3954 47.1644 50.5665L47.5639 50.2944C51.3501 47.6078 55.3827 47.1886 59.0222 48.0863C59.2993 48.1545 59.5442 48.2223 59.7568 48.2895C59.8607 46.627 59.5899 44.9625 58.9642 43.4171L58.2456 43.1915C55.5744 42.5322 52.6422 42.7946 49.8356 44.6252L49.4361 44.8972C45.6516 47.5822 41.6189 48.0015 37.9778 47.1054C37.731 47.0449 37.486 46.9771 37.2432 46.9022ZM37.9118 43.7339C38.4295 43.9003 38.7104 43.9889 38.7544 43.9995C41.4272 44.6572 44.3594 44.3948 47.1644 42.5658L47.5639 42.2938C50.4865 40.22 53.5573 39.4968 56.4814 39.6888C55.1428 38.358 53.4884 37.3833 51.6707 36.8546C49.853 36.3259 47.9306 36.2602 46.0806 36.6635C44.2307 37.0668 42.5127 37.9262 41.0851 39.1624C39.6574 40.3986 38.5662 41.9718 37.9118 43.7371M59.0914 51.4609L58.2456 51.1953C55.5744 50.5361 52.6422 50.7985 49.8356 52.629L49.4361 52.9011C46.5087 54.978 43.4331 55.6997 40.5057 55.5045C41.8437 56.8391 43.4989 57.8172 45.3183 58.3484C47.1376 58.8796 49.0624 58.9468 50.9148 58.5438C52.7672 58.1408 54.4875 57.2806 55.9166 56.0426C57.3458 54.8046 58.4377 53.2289 59.0914 51.4609Z"/>
</mask>
<path fill-rule="evenodd" clip-rule="evenodd" d="M48.5 30C48.7991 30.0002 49.0923 30.083 49.3467 30.2393C49.6011 30.3956 49.8066 30.6191 49.9403 30.8849L51.2357 33.4563C53.9369 33.9717 56.4348 35.2396 58.4378 37.1119C60.4408 38.9842 61.8663 41.3838 62.5478 44.0305C63.2294 46.6771 63.1389 49.4618 62.287 52.0593C61.435 54.6568 59.8567 56.9601 57.7363 58.7003C55.616 60.4405 53.041 61.5457 50.3119 61.8871C47.5828 62.2285 44.8123 61.7919 42.3237 60.6282C39.8351 59.4646 37.731 57.6219 36.2572 55.3153C34.7834 53.0087 34.0005 50.3333 34 47.6014C33.9994 44.253 35.1736 41.009 37.3207 38.4274C39.4678 35.8458 42.4535 34.088 45.7643 33.4563L47.0597 30.8849C47.1934 30.6191 47.3989 30.3956 47.6533 30.2393C47.9077 30.083 48.2009 30.0002 48.5 30ZM37.2432 46.9022C37.1373 48.5642 37.4059 50.2287 38.0294 51.7746C38.4719 51.9143 38.7136 51.989 38.7544 51.9986C41.4272 52.6578 44.3594 52.3954 47.1644 50.5665L47.5639 50.2944C51.3501 47.6078 55.3827 47.1886 59.0222 48.0863C59.2993 48.1545 59.5442 48.2223 59.7568 48.2895C59.8607 46.627 59.5899 44.9625 58.9642 43.4171L58.2456 43.1915C55.5744 42.5322 52.6422 42.7946 49.8356 44.6252L49.4361 44.8972C45.6516 47.5822 41.6189 48.0015 37.9778 47.1054C37.731 47.0449 37.486 46.9771 37.2432 46.9022ZM37.9118 43.7339C38.4295 43.9003 38.7104 43.9889 38.7544 43.9995C41.4272 44.6572 44.3594 44.3948 47.1644 42.5658L47.5639 42.2938C50.4865 40.22 53.5573 39.4968 56.4814 39.6888C55.1428 38.358 53.4884 37.3833 51.6707 36.8546C49.853 36.3259 47.9306 36.2602 46.0806 36.6635C44.2307 37.0668 42.5127 37.9262 41.0851 39.1624C39.6574 40.3986 38.5662 41.9718 37.9118 43.7371M59.0914 51.4609L58.2456 51.1953C55.5744 50.5361 52.6422 50.7985 49.8356 52.629L49.4361 52.9011C46.5087 54.978 43.4331 55.6997 40.5057 55.5045C41.8437 56.8391 43.4989 57.8172 45.3183 58.3484C47.1376 58.8796 49.0624 58.9468 50.9148 58.5438C52.7672 58.1408 54.4875 57.2806 55.9166 56.0426C57.3458 54.8046 58.4377 53.2289 59.0914 51.4609Z" fill="url(#paint0_linear_4_507)" fill-opacity="0.6"/>
<path d="M48.5 30L48.5005 29L48.4995 29L48.5 30ZM49.9403 30.8849L49.047 31.3343L49.0472 31.3348L49.9403 30.8849ZM51.2357 33.4563L50.3426 33.9062L50.5643 34.3462L51.0482 34.4386L51.2357 33.4563ZM50.3119 61.8871L50.436 62.8794L50.3119 61.8871ZM34 47.6014L33 47.6016L34 47.6014ZM45.7643 33.4563L45.9518 34.4386L46.4358 34.3462L46.6574 33.9062L45.7643 33.4563ZM47.0597 30.8849L47.9528 31.3348L47.953 31.3343L47.0597 30.8849ZM37.2432 46.9022L37.538 45.9466L36.3258 45.5726L36.2452 46.8386L37.2432 46.9022ZM38.0294 51.7746L37.102 52.1486L37.2784 52.5861L37.7283 52.7281L38.0294 51.7746ZM38.7544 51.9986L38.9939 51.0276L38.9834 51.0252L38.7544 51.9986ZM47.1644 50.5665L47.7106 51.4041L47.7189 51.3987L47.7272 51.3931L47.1644 50.5665ZM47.5639 50.2944L48.1267 51.1211L48.1347 51.1156L48.1426 51.11L47.5639 50.2944ZM59.0222 48.0863L58.7827 49.0572L58.7829 49.0572L59.0222 48.0863ZM59.7568 48.2895L59.4555 49.243L60.6752 49.6284L60.7549 48.3518L59.7568 48.2895ZM58.9642 43.4171L59.8911 43.0418L59.714 42.6044L59.2637 42.463L58.9642 43.4171ZM58.2456 43.1915L58.5452 42.2374L58.5155 42.2281L58.4852 42.2206L58.2456 43.1915ZM49.8356 44.6252L49.2893 43.7876L49.281 43.793L49.2728 43.7986L49.8356 44.6252ZM49.4361 44.8972L48.8733 44.0706L48.8653 44.076L48.8574 44.0816L49.4361 44.8972ZM37.9778 47.1054L38.2168 46.1344L38.216 46.1342L37.9778 47.1054ZM38.7544 43.9995L38.9933 43.0285L38.9898 43.0276L38.7544 43.9995ZM47.1644 42.5658L47.7106 43.4035L47.7189 43.398L47.7272 43.3924L47.1644 42.5658ZM47.5639 42.2938L48.1267 43.1204L48.1347 43.115L48.1426 43.1093L47.5639 42.2938ZM56.4814 39.6888L56.4159 40.6866L59.0795 40.8615L57.1865 38.9796L56.4814 39.6888ZM59.0914 51.4609L60.0294 51.8078L60.394 50.8218L59.3911 50.5069L59.0914 51.4609ZM58.2456 51.1953L58.5452 50.2413L58.5155 50.2319L58.4852 50.2245L58.2456 51.1953ZM49.8356 52.629L49.2893 51.7915L49.281 51.7969L49.2728 51.8024L49.8356 52.629ZM49.4361 52.9011L48.8733 52.0744L48.8653 52.0799L48.8574 52.0855L49.4361 52.9011ZM40.5057 55.5045L40.5722 54.5067L37.9113 54.3292L39.7995 56.2125L40.5057 55.5045ZM48.5 30L48.4995 31C48.6143 31.0001 48.7265 31.0319 48.8232 31.0914L49.3467 30.2393L49.8701 29.3873C49.4581 29.1341 48.9839 29.0003 48.5005 29L48.5 30ZM49.3467 30.2393L48.8232 31.0914C48.9199 31.1508 48.9971 31.2351 49.047 31.3343L49.9403 30.8849L50.8336 30.4354C50.6161 30.0031 50.2822 29.6404 49.8701 29.3873L49.3467 30.2393ZM49.9403 30.8849L49.0472 31.3348L50.3426 33.9062L51.2357 33.4563L52.1288 33.0064L50.8334 30.435L49.9403 30.8849ZM51.2357 33.4563L51.0482 34.4386C53.5644 34.9187 55.8904 36.0995 57.7549 37.8424L58.4378 37.1119L59.1207 36.3814C56.9792 34.3796 54.3094 33.0247 51.4231 32.474L51.2357 33.4563ZM58.4378 37.1119L57.7549 37.8424C59.6194 39.5853 60.9455 41.8181 61.5794 44.2798L62.5478 44.0305L63.5162 43.7811C62.7871 40.9495 61.2622 38.3832 59.1207 36.3814L58.4378 37.1119ZM62.5478 44.0305L61.5794 44.2798C62.2133 46.7416 62.1292 49.3315 61.3368 51.7477L62.287 52.0593L63.2372 52.371C64.1486 49.592 64.2454 46.6127 63.5162 43.7811L62.5478 44.0305ZM62.287 52.0593L61.3368 51.7477C60.5443 54.1638 59.0759 56.3073 57.1019 57.9273L57.7363 58.7003L58.3707 59.4733C60.6376 57.6129 62.3257 55.1498 63.2372 52.371L62.287 52.0593ZM57.7363 58.7003L57.1019 57.9273C55.128 59.5473 52.73 60.5768 50.1878 60.8948L50.3119 61.8871L50.436 62.8794C53.3519 62.5146 56.104 61.3336 58.3707 59.4733L57.7363 58.7003ZM50.3119 61.8871L50.1878 60.8948C47.6456 61.2128 45.0649 60.8061 42.7473 59.7224L42.3237 60.6282L41.9001 61.5341C44.5597 62.7777 47.5201 63.2441 50.436 62.8794L50.3119 61.8871ZM42.3237 60.6282L42.7473 59.7224C40.4297 58.6387 38.4713 56.9231 37.0999 54.7769L36.2572 55.3153L35.4145 55.8537C36.9908 58.3207 39.2405 60.2905 41.9001 61.5341L42.3237 60.6282ZM36.2572 55.3153L37.0999 54.7769C35.7285 52.6307 35.0005 50.142 35 47.6012L34 47.6014L33 47.6016C33.0005 50.5246 33.8382 53.3867 35.4145 55.8537L36.2572 55.3153ZM34 47.6014L35 47.6012C34.9994 44.4872 36.0914 41.4694 38.0895 39.0669L37.3207 38.4274L36.5518 37.788C34.2558 40.5487 32.9993 44.0188 33 47.6016L34 47.6014ZM37.3207 38.4274L38.0895 39.0669C40.0878 36.6642 42.8676 35.027 45.9518 34.4386L45.7643 33.4563L45.5769 32.474C42.0393 33.149 38.8477 35.0275 36.5518 37.788L37.3207 38.4274ZM45.7643 33.4563L46.6574 33.9062L47.9528 31.3348L47.0597 30.8849L46.1666 30.435L44.8712 33.0064L45.7643 33.4563ZM47.0597 30.8849L47.953 31.3343C48.0029 31.2351 48.0801 31.1508 48.1768 31.0914L47.6533 30.2393L47.1299 29.3873C46.7178 29.6404 46.3839 30.0031 46.1664 30.4354L47.0597 30.8849ZM47.6533 30.2393L48.1768 31.0914C48.2735 31.0319 48.3857 31.0001 48.5005 31L48.5 30L48.4995 29C48.0161 29.0003 47.5419 29.1341 47.1299 29.3873L47.6533 30.2393ZM37.2432 46.9022L36.2452 46.8386C36.1298 48.65 36.4226 50.4641 37.102 52.1486L38.0294 51.7746L38.9568 51.4005C38.3892 49.9933 38.1448 48.4783 38.2411 46.9657L37.2432 46.9022ZM38.0294 51.7746L37.7283 52.7281C38.1383 52.8576 38.4367 52.9511 38.5254 52.972L38.7544 51.9986L38.9834 51.0252C39.0076 51.0309 39.0153 51.0338 38.972 51.0209C38.9412 51.0117 38.8969 50.9982 38.8377 50.98C38.7199 50.9435 38.5511 50.8907 38.3305 50.821L38.0294 51.7746ZM38.7544 51.9986L38.5149 52.9695C41.4284 53.6881 44.6501 53.3997 47.7106 51.4041L47.1644 50.5665L46.6182 49.7288C44.0688 51.3911 41.4261 51.6276 38.9939 51.0277L38.7544 51.9986ZM47.1644 50.5665L47.7272 51.3931L48.1267 51.1211L47.5639 50.2944L47.0012 49.4678L46.6016 49.7399L47.1644 50.5665ZM47.5639 50.2944L48.1426 51.11C51.6686 48.608 55.397 48.2221 58.7827 49.0572L59.0222 48.0863L59.2616 47.1154C55.3684 46.1551 51.0315 46.6077 46.9852 49.4789L47.5639 50.2944ZM59.0222 48.0863L58.7829 49.0572C59.0446 49.1217 59.2681 49.1838 59.4555 49.243L59.7568 48.2895L60.0582 47.336C59.8203 47.2608 59.5539 47.1874 59.2614 47.1153L59.0222 48.0863ZM59.7568 48.2895L60.7549 48.3518C60.8681 46.5399 60.5729 44.7258 59.8911 43.0418L58.9642 43.4171L58.0373 43.7924C58.6069 45.1992 58.8533 46.7142 58.7588 48.2272L59.7568 48.2895ZM58.9642 43.4171L59.2637 42.463L58.5452 42.2374L58.2456 43.1915L57.946 44.1455L58.6646 44.3712L58.9642 43.4171ZM58.2456 43.1915L58.4852 42.2206C55.5731 41.5019 52.3513 41.7904 49.2893 43.7876L49.8356 44.6252L50.3819 45.4628C52.933 43.7988 55.5757 43.5625 58.006 44.1623L58.2456 43.1915ZM49.8356 44.6252L49.2728 43.7986L48.8733 44.0706L49.4361 44.8972L49.9988 45.7238L50.3984 45.4518L49.8356 44.6252ZM49.4361 44.8972L48.8574 44.0816C45.3332 46.582 41.6046 46.9681 38.2168 46.1344L37.9778 47.1054L37.7389 48.0764C41.6333 49.0348 45.97 48.5825 50.0147 45.7128L49.4361 44.8972ZM37.9778 47.1054L38.216 46.1342C37.9882 46.0783 37.7621 46.0158 37.538 45.9466L37.2432 46.9022L36.9483 47.8577C37.2099 47.9384 37.4738 48.0114 37.7397 48.0766L37.9778 47.1054ZM37.9118 43.7339L37.6058 44.6859C38.0907 44.8418 38.4279 44.9494 38.519 44.9714L38.7544 43.9995L38.9898 43.0276C39.0135 43.0334 39.0188 43.0357 38.969 43.0205C38.9326 43.0094 38.8805 42.9932 38.8114 42.9714C38.6736 42.928 38.4761 42.8649 38.2178 42.7819L37.9118 43.7339ZM38.7544 43.9995L38.5155 44.9706C41.4286 45.6873 44.6501 45.3991 47.7106 43.4035L47.1644 42.5658L46.6182 41.7282C44.0688 43.3905 41.4259 43.627 38.9933 43.0285L38.7544 43.9995ZM47.1644 42.5658L47.7272 43.3924L48.1267 43.1204L47.5639 42.2938L47.0012 41.4672L46.6016 41.7392L47.1644 42.5658ZM47.5639 42.2938L48.1426 43.1093C50.8721 41.1726 53.714 40.5092 56.4159 40.6866L56.4814 39.6888L56.547 38.6909C53.4006 38.4843 50.1009 39.2675 46.9853 41.4783L47.5639 42.2938ZM56.4814 39.6888L57.1865 38.9796C55.7288 37.5305 53.9279 36.4697 51.95 35.8944L51.6707 36.8546L51.3914 37.8148C53.0489 38.2969 54.5568 39.1855 55.7764 40.398L56.4814 39.6888ZM51.6707 36.8546L51.95 35.8944C49.9722 35.3191 47.8805 35.2476 45.8676 35.6864L46.0806 36.6635L46.2936 37.6405C47.9807 37.2727 49.7339 37.3327 51.3914 37.8148L51.6707 36.8546ZM46.0806 36.6635L45.8676 35.6864C43.8547 36.1253 41.9848 37.0604 40.4304 38.4064L41.0851 39.1624L41.7397 39.9183C43.0405 38.7919 44.6066 38.0083 46.2936 37.6405L46.0806 36.6635ZM41.0851 39.1624L40.4304 38.4064C38.876 39.7524 37.6872 41.466 36.9741 43.3895L37.9118 43.7371L38.8494 44.0847C39.4451 42.4777 40.4388 41.0448 41.7397 39.9183L41.0851 39.1624ZM59.0914 51.4609L59.3911 50.5069L58.5452 50.2413L58.2456 51.1953L57.946 52.1494L58.7918 52.415L59.0914 51.4609ZM58.2456 51.1953L58.4852 50.2245C55.5731 49.5057 52.3513 49.7943 49.2893 51.7915L49.8356 52.629L50.3819 53.4666C52.933 51.8027 55.5757 51.5664 58.006 52.1662L58.2456 51.1953ZM49.8356 52.629L49.2728 51.8024L48.8733 52.0744L49.4361 52.9011L49.9988 53.7277L50.3984 53.4557L49.8356 52.629ZM49.4361 52.9011L48.8574 52.0855C46.1235 54.0252 43.2772 54.6871 40.5722 54.5067L40.5057 55.5045L40.4391 56.5023C43.5889 56.7123 46.8938 55.9309 50.0147 53.7166L49.4361 52.9011ZM40.5057 55.5045L39.7995 56.2125C41.2565 57.6658 43.0583 58.7303 45.038 59.3083L45.3183 58.3484L45.5985 57.3885C43.9395 56.9041 42.4309 56.0124 41.2119 54.7964L40.5057 55.5045ZM45.3183 58.3484L45.038 59.3083C47.0176 59.8863 49.1119 59.9595 51.1274 59.521L50.9148 58.5438L50.7022 57.5667C49.0129 57.9342 47.2576 57.8729 45.5985 57.3885L45.3183 58.3484ZM50.9148 58.5438L51.1274 59.521C53.1429 59.0825 55.0153 58.1463 56.5714 56.7985L55.9166 56.0426L55.2619 55.2868C53.9596 56.4148 52.3915 57.1992 50.7022 57.5667L50.9148 58.5438ZM55.9166 56.0426L56.5714 56.7985C58.1274 55.4505 59.317 53.7342 60.0294 51.8078L59.0914 51.4609L58.1535 51.1141C57.5584 52.7235 56.5641 54.1587 55.2619 55.2868L55.9166 56.0426Z" fill="#E0AC5A" mask="url(#path-1-inside-1_4_507)"/>
<line x1="48.5" y1="1" x2="48.5" y2="31" stroke="#E0AC5A"/>
<mask id="path-4-inside-2_4_507" fill="white">
<path fill-rule="evenodd" clip-rule="evenodd" d="M18.5 6C18.7991 6.00016 19.0923 6.08302 19.3467 6.2393C19.6011 6.39559 19.8066 6.61912 19.9403 6.88487L21.2357 9.45628C23.9369 9.97169 26.4348 11.2396 28.4378 13.1119C30.4408 14.9842 31.8663 17.3838 32.5478 20.0305C33.2294 22.6771 33.1389 25.4618 32.287 28.0593C31.435 30.6568 29.8567 32.9601 27.7363 34.7003C25.616 36.4405 23.041 37.5457 20.3119 37.8871C17.5828 38.2285 14.8123 37.7919 12.3237 36.6282C9.83508 35.4646 7.73105 33.6219 6.2572 31.3153C4.78336 29.0087 4.0005 26.3333 4 23.6014C3.99939 20.253 5.1736 17.009 7.32068 14.4274C9.46775 11.8458 12.4535 10.088 15.7643 9.45628L17.0597 6.88487C17.1934 6.61912 17.3989 6.39559 17.6533 6.2393C17.9077 6.08302 18.2009 6.00016 18.5 6ZM7.24317 22.9022C7.13729 24.5642 7.40588 26.2287 8.02939 27.7746C8.47191 27.9143 8.71357 27.989 8.75439 27.9986C11.4272 28.6578 14.3594 28.3954 17.1644 26.5665L17.5639 26.2944C21.3501 23.6078 25.3827 23.1886 29.0222 24.0863C29.2993 24.1545 29.5442 24.2223 29.7568 24.2895C29.8607 22.627 29.5899 20.9625 28.9642 19.4171L28.2456 19.1915C25.5744 18.5322 22.6422 18.7946 19.8356 20.6252L19.4361 20.8972C15.6516 23.5822 11.6189 24.0015 7.97783 23.1054C7.73098 23.0449 7.48598 22.9771 7.24317 22.9022ZM7.91178 19.7339C8.42948 19.9003 8.71035 19.9889 8.75439 19.9995C11.4272 20.6572 14.3594 20.3948 17.1644 18.5658L17.5639 18.2938C20.4865 16.22 23.5573 15.4968 26.4814 15.6888C25.1428 14.358 23.4884 13.3833 21.6707 12.8546C19.853 12.3259 17.9306 12.2602 16.0806 12.6635C14.2307 13.0668 12.5127 13.9262 11.0851 15.1624C9.65745 16.3986 8.56615 17.9718 7.91178 19.7371M29.0914 27.4609L28.2456 27.1953C25.5744 26.5361 22.6422 26.7985 19.8356 28.629L19.4361 28.9011C16.5087 30.978 13.4331 31.6997 10.5057 31.5045C11.8437 32.8391 13.4989 33.8172 15.3183 34.3484C17.1376 34.8796 19.0624 34.9468 20.9148 34.5438C22.7672 34.1408 24.4875 33.2806 25.9166 32.0426C27.3458 30.8046 28.4377 29.2289 29.0914 27.4609Z"/>
</mask>
<path fill-rule="evenodd" clip-rule="evenodd" d="M18.5 6C18.7991 6.00016 19.0923 6.08302 19.3467 6.2393C19.6011 6.39559 19.8066 6.61912 19.9403 6.88487L21.2357 9.45628C23.9369 9.97169 26.4348 11.2396 28.4378 13.1119C30.4408 14.9842 31.8663 17.3838 32.5478 20.0305C33.2294 22.6771 33.1389 25.4618 32.287 28.0593C31.435 30.6568 29.8567 32.9601 27.7363 34.7003C25.616 36.4405 23.041 37.5457 20.3119 37.8871C17.5828 38.2285 14.8123 37.7919 12.3237 36.6282C9.83508 35.4646 7.73105 33.6219 6.2572 31.3153C4.78336 29.0087 4.0005 26.3333 4 23.6014C3.99939 20.253 5.1736 17.009 7.32068 14.4274C9.46775 11.8458 12.4535 10.088 15.7643 9.45628L17.0597 6.88487C17.1934 6.61912 17.3989 6.39559 17.6533 6.2393C17.9077 6.08302 18.2009 6.00016 18.5 6ZM7.24317 22.9022C7.13729 24.5642 7.40588 26.2287 8.02939 27.7746C8.47191 27.9143 8.71357 27.989 8.75439 27.9986C11.4272 28.6578 14.3594 28.3954 17.1644 26.5665L17.5639 26.2944C21.3501 23.6078 25.3827 23.1886 29.0222 24.0863C29.2993 24.1545 29.5442 24.2223 29.7568 24.2895C29.8607 22.627 29.5899 20.9625 28.9642 19.4171L28.2456 19.1915C25.5744 18.5322 22.6422 18.7946 19.8356 20.6252L19.4361 20.8972C15.6516 23.5822 11.6189 24.0015 7.97783 23.1054C7.73098 23.0449 7.48598 22.9771 7.24317 22.9022ZM7.91178 19.7339C8.42948 19.9003 8.71035 19.9889 8.75439 19.9995C11.4272 20.6572 14.3594 20.3948 17.1644 18.5658L17.5639 18.2938C20.4865 16.22 23.5573 15.4968 26.4814 15.6888C25.1428 14.358 23.4884 13.3833 21.6707 12.8546C19.853 12.3259 17.9306 12.2602 16.0806 12.6635C14.2307 13.0668 12.5127 13.9262 11.0851 15.1624C9.65745 16.3986 8.56615 17.9718 7.91178 19.7371M29.0914 27.4609L28.2456 27.1953C25.5744 26.5361 22.6422 26.7985 19.8356 28.629L19.4361 28.9011C16.5087 30.978 13.4331 31.6997 10.5057 31.5045C11.8437 32.8391 13.4989 33.8172 15.3183 34.3484C17.1376 34.8796 19.0624 34.9468 20.9148 34.5438C22.7672 34.1408 24.4875 33.2806 25.9166 32.0426C27.3458 30.8046 28.4377 29.2289 29.0914 27.4609Z" fill="url(#paint1_linear_4_507)" fill-opacity="0.6"/>
<path d="M18.5 6L18.5005 5L18.4995 5L18.5 6ZM19.9403 6.88487L19.047 7.33432L19.0472 7.33476L19.9403 6.88487ZM21.2357 9.45628L20.3426 9.90617L20.5643 10.3462L21.0482 10.4386L21.2357 9.45628ZM20.3119 37.8871L20.436 38.8794L20.3119 37.8871ZM4 23.6014L3 23.6016L4 23.6014ZM15.7643 9.45628L15.9518 10.4386L16.4358 10.3462L16.6574 9.90617L15.7643 9.45628ZM17.0597 6.88487L17.9528 7.33476L17.953 7.33432L17.0597 6.88487ZM7.24317 22.9022L7.538 21.9466L6.32584 21.5726L6.24519 22.8386L7.24317 22.9022ZM8.02939 27.7746L7.10198 28.1486L7.27843 28.5861L7.72825 28.7281L8.02939 27.7746ZM8.75439 27.9986L8.99388 27.0276L8.98337 27.0252L8.75439 27.9986ZM17.1644 26.5665L17.7106 27.4041L17.7189 27.3987L17.7272 27.3931L17.1644 26.5665ZM17.5639 26.2944L18.1267 27.1211L18.1347 27.1156L18.1426 27.11L17.5639 26.2944ZM29.0222 24.0863L28.7827 25.0572L28.7829 25.0572L29.0222 24.0863ZM29.7568 24.2895L29.4555 25.243L30.6752 25.6284L30.7549 24.3518L29.7568 24.2895ZM28.9642 19.4171L29.8911 19.0418L29.714 18.6044L29.2637 18.463L28.9642 19.4171ZM28.2456 19.1915L28.5452 18.2374L28.5155 18.2281L28.4852 18.2206L28.2456 19.1915ZM19.8356 20.6252L19.2893 19.7876L19.281 19.793L19.2728 19.7986L19.8356 20.6252ZM19.4361 20.8972L18.8733 20.0706L18.8653 20.076L18.8574 20.0816L19.4361 20.8972ZM7.97783 23.1054L8.2168 22.1344L8.21597 22.1342L7.97783 23.1054ZM8.75439 19.9995L8.99332 19.0285L8.98982 19.0276L8.75439 19.9995ZM17.1644 18.5658L17.7106 19.4035L17.7189 19.398L17.7272 19.3924L17.1644 18.5658ZM17.5639 18.2938L18.1267 19.1204L18.1347 19.115L18.1426 19.1093L17.5639 18.2938ZM26.4814 15.6888L26.4159 16.6866L29.0795 16.8615L27.1865 14.9796L26.4814 15.6888ZM29.0914 27.4609L30.0294 27.8078L30.394 26.8218L29.3911 26.5069L29.0914 27.4609ZM28.2456 27.1953L28.5452 26.2413L28.5155 26.2319L28.4852 26.2245L28.2456 27.1953ZM19.8356 28.629L19.2893 27.7915L19.281 27.7969L19.2728 27.8024L19.8356 28.629ZM19.4361 28.9011L18.8733 28.0744L18.8653 28.0799L18.8574 28.0855L19.4361 28.9011ZM10.5057 31.5045L10.5722 30.5067L7.91132 30.3292L9.79948 32.2125L10.5057 31.5045ZM18.5 6L18.4995 7C18.6143 7.00006 18.7265 7.03191 18.8232 7.09135L19.3467 6.2393L19.8701 5.38725C19.4581 5.13413 18.9839 5.00026 18.5005 5L18.5 6ZM19.3467 6.2393L18.8232 7.09135C18.9199 7.15076 18.9971 7.23515 19.047 7.33432L19.9403 6.88487L20.8336 6.43542C20.6161 6.00309 20.2822 5.64041 19.8701 5.38725L19.3467 6.2393ZM19.9403 6.88487L19.0472 7.33476L20.3426 9.90617L21.2357 9.45628L22.1288 9.00639L20.8334 6.43498L19.9403 6.88487ZM21.2357 9.45628L21.0482 10.4386C23.5644 10.9187 25.8904 12.0995 27.7549 13.8424L28.4378 13.1119L29.1207 12.3814C26.9792 10.3796 24.3094 9.02472 21.4231 8.474L21.2357 9.45628ZM28.4378 13.1119L27.7549 13.8424C29.6194 15.5853 30.9455 17.8181 31.5794 20.2798L32.5478 20.0305L33.5162 19.7811C32.7871 16.9495 31.2622 14.3832 29.1207 12.3814L28.4378 13.1119ZM32.5478 20.0305L31.5794 20.2798C32.2133 22.7416 32.1292 25.3315 31.3368 27.7477L32.287 28.0593L33.2372 28.371C34.1486 25.592 34.2454 22.6127 33.5162 19.7811L32.5478 20.0305ZM32.287 28.0593L31.3368 27.7477C30.5443 30.1638 29.0759 32.3073 27.1019 33.9273L27.7363 34.7003L28.3707 35.4733C30.6376 33.6129 32.3257 31.1498 33.2372 28.371L32.287 28.0593ZM27.7363 34.7003L27.1019 33.9273C25.128 35.5473 22.73 36.5768 20.1878 36.8948L20.3119 37.8871L20.436 38.8794C23.3519 38.5146 26.104 37.3336 28.3707 35.4733L27.7363 34.7003ZM20.3119 37.8871L20.1878 36.8948C17.6456 37.2128 15.0649 36.8061 12.7473 35.7224L12.3237 36.6282L11.9001 37.5341C14.5597 38.7777 17.5201 39.2441 20.436 38.8794L20.3119 37.8871ZM12.3237 36.6282L12.7473 35.7224C10.4297 34.6387 8.47127 32.9231 7.09987 30.7769L6.2572 31.3153L5.41454 31.8537C6.99083 34.3207 9.24047 36.2905 11.9001 37.5341L12.3237 36.6282ZM6.2572 31.3153L7.09987 30.7769C5.72852 28.6307 5.00046 26.142 5 23.6012L4 23.6014L3 23.6016C3.00053 26.5246 3.8382 29.3867 5.41454 31.8537L6.2572 31.3153ZM4 23.6014L5 23.6012C4.99943 20.4872 6.0914 17.4694 8.08952 15.0669L7.32068 14.4274L6.55183 13.788C4.2558 16.5487 2.99935 20.0188 3 23.6016L4 23.6014ZM7.32068 14.4274L8.08952 15.0669C10.0878 12.6642 12.8676 11.027 15.9518 10.4386L15.7643 9.45628L15.5769 8.474C12.0393 9.149 8.84774 11.0275 6.55183 13.788L7.32068 14.4274ZM15.7643 9.45628L16.6574 9.90617L17.9528 7.33476L17.0597 6.88487L16.1666 6.43498L14.8712 9.00639L15.7643 9.45628ZM17.0597 6.88487L17.953 7.33432C18.0029 7.23515 18.0801 7.15076 18.1768 7.09135L17.6533 6.2393L17.1299 5.38725C16.7178 5.64041 16.3839 6.00309 16.1664 6.43542L17.0597 6.88487ZM17.6533 6.2393L18.1768 7.09135C18.2735 7.03191 18.3857 7.00006 18.5005 7L18.5 6L18.4995 5C18.0161 5.00026 17.5419 5.13413 17.1299 5.38725L17.6533 6.2393ZM7.24317 22.9022L6.24519 22.8386C6.12979 24.65 6.42256 26.4641 7.10198 28.1486L8.02939 27.7746L8.9568 27.4005C8.3892 25.9933 8.14479 24.4783 8.24114 22.9657L7.24317 22.9022ZM8.02939 27.7746L7.72825 28.7281C8.13827 28.8576 8.43666 28.9511 8.52541 28.972L8.75439 27.9986L8.98337 27.0252C9.00765 27.0309 9.01531 27.0338 8.972 27.0209C8.94124 27.0117 8.89691 26.9982 8.83775 26.98C8.71988 26.9435 8.55114 26.8907 8.33052 26.821L8.02939 27.7746ZM8.75439 27.9986L8.51492 28.9695C11.4284 29.6881 14.6501 29.3997 17.7106 27.4041L17.1644 26.5665L16.6182 25.7288C14.0688 27.3911 11.4261 27.6276 8.99386 27.0277L8.75439 27.9986ZM17.1644 26.5665L17.7272 27.3931L18.1267 27.1211L17.5639 26.2944L17.0012 25.4678L16.6016 25.7399L17.1644 26.5665ZM17.5639 26.2944L18.1426 27.11C21.6686 24.608 25.397 24.2221 28.7827 25.0572L29.0222 24.0863L29.2616 23.1154C25.3684 22.1551 21.0315 22.6077 16.9852 25.4789L17.5639 26.2944ZM29.0222 24.0863L28.7829 25.0572C29.0446 25.1217 29.2681 25.1838 29.4555 25.243L29.7568 24.2895L30.0582 23.336C29.8203 23.2608 29.5539 23.1874 29.2614 23.1153L29.0222 24.0863ZM29.7568 24.2895L30.7549 24.3518C30.8681 22.5399 30.5729 20.7258 29.8911 19.0418L28.9642 19.4171L28.0373 19.7924C28.6069 21.1992 28.8533 22.7142 28.7588 24.2272L29.7568 24.2895ZM28.9642 19.4171L29.2637 18.463L28.5452 18.2374L28.2456 19.1915L27.946 20.1455L28.6646 20.3712L28.9642 19.4171ZM28.2456 19.1915L28.4852 18.2206C25.5731 17.5019 22.3513 17.7904 19.2893 19.7876L19.8356 20.6252L20.3819 21.4628C22.933 19.7988 25.5757 19.5625 28.006 20.1623L28.2456 19.1915ZM19.8356 20.6252L19.2728 19.7986L18.8733 20.0706L19.4361 20.8972L19.9988 21.7238L20.3984 21.4518L19.8356 20.6252ZM19.4361 20.8972L18.8574 20.0816C15.3332 22.582 11.6046 22.9681 8.2168 22.1344L7.97783 23.1054L7.73887 24.0764C11.6333 25.0348 15.97 24.5825 20.0147 21.7128L19.4361 20.8972ZM7.97783 23.1054L8.21597 22.1342C7.98816 22.0783 7.76207 22.0158 7.538 21.9466L7.24317 22.9022L6.94833 23.8577C7.20989 23.9384 7.4738 24.0114 7.73969 24.0766L7.97783 23.1054ZM7.91178 19.7339L7.60575 20.6859C8.09065 20.8418 8.42794 20.9494 8.51896 20.9714L8.75439 19.9995L8.98982 19.0276C9.01347 19.0334 9.01883 19.0357 8.96899 19.0205C8.93259 19.0094 8.88045 18.9932 8.81136 18.9714C8.67362 18.928 8.47609 18.8649 8.2178 18.7819L7.91178 19.7339ZM8.75439 19.9995L8.51546 20.9706C11.4286 21.6873 14.6501 21.3991 17.7106 19.4035L17.1644 18.5658L16.6182 17.7282C14.0688 19.3905 11.4259 19.627 8.99331 19.0285L8.75439 19.9995ZM17.1644 18.5658L17.7272 19.3924L18.1267 19.1204L17.5639 18.2938L17.0012 17.4672L16.6016 17.7392L17.1644 18.5658ZM17.5639 18.2938L18.1426 19.1093C20.8721 17.1726 23.714 16.5092 26.4159 16.6866L26.4814 15.6888L26.547 14.6909C23.4006 14.4843 20.1009 15.2675 16.9853 17.4783L17.5639 18.2938ZM26.4814 15.6888L27.1865 14.9796C25.7288 13.5305 23.9279 12.4697 21.95 11.8944L21.6707 12.8546L21.3914 13.8148C23.0489 14.2969 24.5568 15.1855 25.7764 16.398L26.4814 15.6888ZM21.6707 12.8546L21.95 11.8944C19.9722 11.3191 17.8805 11.2476 15.8676 11.6864L16.0806 12.6635L16.2936 13.6405C17.9807 13.2727 19.7339 13.3327 21.3914 13.8148L21.6707 12.8546ZM16.0806 12.6635L15.8676 11.6864C13.8547 12.1253 11.9848 13.0604 10.4304 14.4064L11.0851 15.1624L11.7397 15.9183C13.0405 14.7919 14.6066 14.0083 16.2936 13.6405L16.0806 12.6635ZM11.0851 15.1624L10.4304 14.4064C8.87604 15.7524 7.68718 17.466 6.97413 19.3895L7.91178 19.7371L8.84943 20.0847C9.44513 18.4777 10.4388 17.0448 11.7397 15.9183L11.0851 15.1624ZM29.0914 27.4609L29.3911 26.5069L28.5452 26.2413L28.2456 27.1953L27.946 28.1494L28.7918 28.415L29.0914 27.4609ZM28.2456 27.1953L28.4852 26.2245C25.5731 25.5057 22.3513 25.7943 19.2893 27.7915L19.8356 28.629L20.3819 29.4666C22.933 27.8027 25.5757 27.5664 28.006 28.1662L28.2456 27.1953ZM19.8356 28.629L19.2728 27.8024L18.8733 28.0744L19.4361 28.9011L19.9988 29.7277L20.3984 29.4557L19.8356 28.629ZM19.4361 28.9011L18.8574 28.0855C16.1235 30.0252 13.2772 30.6871 10.5722 30.5067L10.5057 31.5045L10.4391 32.5023C13.5889 32.7123 16.8938 31.9309 20.0147 29.7166L19.4361 28.9011ZM10.5057 31.5045L9.79948 32.2125C11.2565 33.6658 13.0583 34.7303 15.038 35.3083L15.3183 34.3484L15.5985 33.3885C13.9395 32.9041 12.4309 32.0124 11.2119 30.7964L10.5057 31.5045ZM15.3183 34.3484L15.038 35.3083C17.0176 35.8863 19.1119 35.9595 21.1274 35.521L20.9148 34.5438L20.7022 33.5667C19.0129 33.9342 17.2576 33.8729 15.5985 33.3885L15.3183 34.3484ZM20.9148 34.5438L21.1274 35.521C23.1429 35.0825 25.0153 34.1463 26.5714 32.7985L25.9166 32.0426L25.2619 31.2868C23.9596 32.4148 22.3915 33.1992 20.7022 33.5667L20.9148 34.5438ZM25.9166 32.0426L26.5714 32.7985C28.1274 31.4505 29.317 29.7342 30.0294 27.8078L29.0914 27.4609L28.1535 27.1141C27.5584 28.7235 26.5641 30.1587 25.2619 31.2868L25.9166 32.0426Z" fill="#E0AC5A" mask="url(#path-4-inside-2_4_507)"/>
<line x1="18.5" y1="-8" x2="18.5" y2="7" stroke="#E0AC5A"/>
<mask id="path-7-inside-3_4_507" fill="white">
<path fill-rule="evenodd" clip-rule="evenodd" d="M88 6C88.4126 6.00022 88.817 6.11415 89.1678 6.32904C89.5187 6.54393 89.8022 6.85129 89.9867 7.2167L91.7733 10.7524C95.4992 11.4611 98.9445 13.2044 101.707 15.7789C104.47 18.3533 106.436 21.6527 107.376 25.2919C108.316 28.9311 108.192 32.7599 107.016 36.3315C105.841 39.9031 103.664 43.0702 100.74 45.4629C97.8151 47.8556 94.2634 49.3754 90.4992 49.8448C86.7349 50.3142 82.9135 49.7138 79.481 48.1138C76.0484 46.5138 73.1463 43.9801 71.1134 40.8085C69.0805 37.6369 68.0007 33.9583 68 30.202C67.9992 25.5979 69.6188 21.1374 72.5802 17.5877C75.5417 14.038 79.66 11.621 84.2267 10.7524L86.0133 7.2167C86.1978 6.85129 86.4813 6.54393 86.8322 6.32904C87.183 6.11415 87.5874 6.00022 88 6ZM72.4733 29.2405C72.3273 31.5257 72.6978 33.8144 73.5578 35.94C74.1681 36.1322 74.5015 36.2349 74.5578 36.2481C78.2444 37.1545 82.2889 36.7937 86.1578 34.2789L86.7089 33.9049C91.9311 30.2108 97.4933 29.6343 102.513 30.8686C102.896 30.9625 103.233 31.0556 103.527 31.148C103.67 28.8622 103.296 26.5734 102.433 24.4485L101.442 24.1383C97.7578 23.2318 93.7133 23.5926 89.8422 26.1096L89.2911 26.4837C84.0711 30.1756 78.5089 30.752 73.4867 29.5199C73.1462 29.4367 72.8083 29.3435 72.4733 29.2405ZM73.3956 24.8841C74.1096 25.113 74.497 25.2347 74.5578 25.2494C78.2444 26.1536 82.2889 25.7928 86.1578 23.278L86.7089 22.904C90.74 20.0525 94.9756 19.0581 99.0089 19.3221C97.1625 17.4923 94.8805 16.1521 92.3734 15.4251C89.8663 14.6981 87.2146 14.6078 84.6629 15.1623C82.1112 15.7169 79.7416 16.8985 77.7725 18.5983C75.8034 20.2981 74.2981 22.4613 73.3956 24.8885M102.609 35.5088L101.442 35.1436C97.7578 34.2371 93.7133 34.5979 89.8422 37.1149L89.2911 37.489C85.2533 40.3448 81.0111 41.3371 76.9733 41.0686C78.8189 42.9037 81.1019 44.2486 83.6114 44.979C86.1208 45.7095 88.7757 45.8019 91.3308 45.2477C93.8858 44.6936 96.2586 43.5108 98.2298 41.8086C100.201 40.1064 101.707 37.9397 102.609 35.5088Z"/>
</mask>
<path fill-rule="evenodd" clip-rule="evenodd" d="M88 6C88.4126 6.00022 88.817 6.11415 89.1678 6.32904C89.5187 6.54393 89.8022 6.85129 89.9867 7.2167L91.7733 10.7524C95.4992 11.4611 98.9445 13.2044 101.707 15.7789C104.47 18.3533 106.436 21.6527 107.376 25.2919C108.316 28.9311 108.192 32.7599 107.016 36.3315C105.841 39.9031 103.664 43.0702 100.74 45.4629C97.8151 47.8556 94.2634 49.3754 90.4992 49.8448C86.7349 50.3142 82.9135 49.7138 79.481 48.1138C76.0484 46.5138 73.1463 43.9801 71.1134 40.8085C69.0805 37.6369 68.0007 33.9583 68 30.202C67.9992 25.5979 69.6188 21.1374 72.5802 17.5877C75.5417 14.038 79.66 11.621 84.2267 10.7524L86.0133 7.2167C86.1978 6.85129 86.4813 6.54393 86.8322 6.32904C87.183 6.11415 87.5874 6.00022 88 6ZM72.4733 29.2405C72.3273 31.5257 72.6978 33.8144 73.5578 35.94C74.1681 36.1322 74.5015 36.2349 74.5578 36.2481C78.2444 37.1545 82.2889 36.7937 86.1578 34.2789L86.7089 33.9049C91.9311 30.2108 97.4933 29.6343 102.513 30.8686C102.896 30.9625 103.233 31.0556 103.527 31.148C103.67 28.8622 103.296 26.5734 102.433 24.4485L101.442 24.1383C97.7578 23.2318 93.7133 23.5926 89.8422 26.1096L89.2911 26.4837C84.0711 30.1756 78.5089 30.752 73.4867 29.5199C73.1462 29.4367 72.8083 29.3435 72.4733 29.2405ZM73.3956 24.8841C74.1096 25.113 74.497 25.2347 74.5578 25.2494C78.2444 26.1536 82.2889 25.7928 86.1578 23.278L86.7089 22.904C90.74 20.0525 94.9756 19.0581 99.0089 19.3221C97.1625 17.4923 94.8805 16.1521 92.3734 15.4251C89.8663 14.6981 87.2146 14.6078 84.6629 15.1623C82.1112 15.7169 79.7416 16.8985 77.7725 18.5983C75.8034 20.2981 74.2981 22.4613 73.3956 24.8885M102.609 35.5088L101.442 35.1436C97.7578 34.2371 93.7133 34.5979 89.8422 37.1149L89.2911 37.489C85.2533 40.3448 81.0111 41.3371 76.9733 41.0686C78.8189 42.9037 81.1019 44.2486 83.6114 44.979C86.1208 45.7095 88.7757 45.8019 91.3308 45.2477C93.8858 44.6936 96.2586 43.5108 98.2298 41.8086C100.201 40.1064 101.707 37.9397 102.609 35.5088Z" fill="url(#paint2_linear_4_507)" fill-opacity="0.6"/>
<path d="M88 6L88.0005 5L87.9995 5L88 6ZM89.9867 7.2167L89.0939 7.66727L89.0941 7.66771L89.9867 7.2167ZM91.7733 10.7524L90.8808 11.2034L91.1028 11.6428L91.5865 11.7348L91.7733 10.7524ZM68 30.202L67 30.2022L68 30.202ZM84.2267 10.7524L84.4135 11.7348L84.8972 11.6428L85.1192 11.2034L84.2267 10.7524ZM86.0133 7.2167L86.9059 7.66771L86.9061 7.66727L86.0133 7.2167ZM72.4733 29.2405L72.7673 28.2847L71.5562 27.9121L71.4754 29.1767L72.4733 29.2405ZM73.5578 35.94L72.6308 36.3151L72.8077 36.7523L73.2575 36.8939L73.5578 35.94ZM74.5578 36.2481L74.7966 35.2769L74.7861 35.2745L74.5578 36.2481ZM86.1578 34.2789L86.7028 35.1173L86.7111 35.1119L86.7193 35.1063L86.1578 34.2789ZM86.7089 33.9049L87.2705 34.7323L87.2785 34.7269L87.2864 34.7213L86.7089 33.9049ZM102.513 30.8686L102.275 31.8397L102.275 31.8398L102.513 30.8686ZM103.527 31.148L103.226 32.1018L104.445 32.4857L104.525 31.2106L103.527 31.148ZM102.433 24.4485L103.36 24.0722L103.182 23.6351L102.732 23.4942L102.433 24.4485ZM101.442 24.1383L101.741 23.1839L101.711 23.1747L101.681 23.1672L101.442 24.1383ZM89.8422 26.1096L89.2971 25.2713L89.2888 25.2767L89.2807 25.2822L89.8422 26.1096ZM89.2911 26.4837L88.7295 25.6562L88.7216 25.6617L88.7137 25.6672L89.2911 26.4837ZM73.4867 29.5199L73.7249 28.5487L73.7241 28.5485L73.4867 29.5199ZM74.5578 25.2494L74.796 24.2781L74.7925 24.2773L74.5578 25.2494ZM86.1578 23.278L86.7028 24.1164L86.7111 24.111L86.7193 24.1054L86.1578 23.278ZM86.7089 22.904L87.2705 23.7314L87.2785 23.726L87.2864 23.7204L86.7089 22.904ZM99.0089 19.3221L98.9436 20.3199L101.613 20.4947L99.7128 18.6118L99.0089 19.3221ZM102.609 35.5088L103.546 35.8566L103.913 34.8691L102.908 34.5545L102.609 35.5088ZM101.442 35.1436L101.741 34.1892L101.711 34.18L101.681 34.1725L101.442 35.1436ZM89.8422 37.1149L89.2971 36.2766L89.2888 36.2819L89.2807 36.2875L89.8422 37.1149ZM89.2911 37.489L88.7295 36.6615L88.7216 36.667L88.7137 36.6725L89.2911 37.489ZM76.9733 41.0686L77.0397 40.0709L74.3732 39.8936L76.2683 41.7778L76.9733 41.0686ZM88 6L87.9995 7C88.2284 7.00012 88.4522 7.06339 88.6456 7.18182L89.1678 6.32904L89.6901 5.47626C89.1817 5.16492 88.5967 5.00032 88.0005 5L88 6ZM89.1678 6.32904L88.6456 7.18182C88.8389 7.3002 88.9937 7.46867 89.0939 7.66727L89.9867 7.2167L90.8794 6.76613C90.6108 6.23392 90.1986 5.78766 89.6901 5.47626L89.1678 6.32904ZM89.9867 7.2167L89.0941 7.66771L90.8808 11.2034L91.7733 10.7524L92.6659 10.3014L90.8792 6.76569L89.9867 7.2167ZM91.7733 10.7524L91.5865 11.7348C95.1278 12.4084 98.4014 14.0652 101.026 16.5105L101.707 15.7789L102.389 15.0473C99.4876 12.3436 95.8705 10.5138 91.9602 9.77L91.7733 10.7524ZM101.707 15.7789L101.026 16.5105C103.65 18.9556 105.516 22.0882 106.408 25.542L107.376 25.2919L108.345 25.0418C107.357 21.2171 105.291 17.751 102.389 15.0473L101.707 15.7789ZM107.376 25.2919L106.408 25.542C107.3 28.9957 107.182 32.6293 106.067 36.019L107.016 36.3315L107.966 36.6441C109.201 32.8906 109.333 28.8665 108.345 25.0418L107.376 25.2919ZM107.016 36.3315L106.067 36.019C104.951 39.4088 102.885 42.4161 100.107 44.6889L100.74 45.4629L101.373 46.2369C104.444 43.7242 106.731 40.3975 107.966 36.6441L107.016 36.3315ZM100.74 45.4629L100.107 44.6889C97.3284 46.9618 93.9534 48.4063 90.3754 48.8525L90.4992 49.8448L90.6229 50.8371C94.5734 50.3445 98.3019 48.7494 101.373 46.2369L100.74 45.4629ZM90.4992 49.8448L90.3754 48.8525C86.7974 49.2986 83.1653 48.7279 79.9034 47.2074L79.481 48.1138L79.0585 49.0202C82.6617 50.6997 86.6725 51.3297 90.6229 50.8371L90.4992 49.8448ZM79.481 48.1138L79.9034 47.2074C76.6416 45.687 73.8854 43.2801 71.9553 40.2689L71.1134 40.8085L70.2715 41.3482C72.4072 44.6801 75.4551 47.3406 79.0585 49.0202L79.481 48.1138ZM71.1134 40.8085L71.9553 40.2689C70.0253 37.2578 69.0007 33.7663 69 30.2018L68 30.202L67 30.2022C67.0007 34.1503 68.1357 38.0161 70.2715 41.3482L71.1134 40.8085ZM68 30.202L69 30.2018C68.9992 25.8329 70.536 21.599 73.3481 18.2283L72.5802 17.5877L71.8124 16.9471C68.7015 20.6758 66.9991 25.3628 67 30.2022L68 30.202ZM72.5802 17.5877L73.3481 18.2283C76.1604 14.8575 80.0728 12.5604 84.4135 11.7348L84.2267 10.7524L84.0398 9.77C79.2471 10.6816 74.923 13.2186 71.8124 16.9471L72.5802 17.5877ZM84.2267 10.7524L85.1192 11.2034L86.9059 7.66771L86.0133 7.2167L85.1208 6.76569L83.3341 10.3014L84.2267 10.7524ZM86.0133 7.2167L86.9061 7.66727C87.0063 7.46867 87.1611 7.3002 87.3544 7.18182L86.8322 6.32904L86.3099 5.47626C85.8014 5.78766 85.3892 6.23392 85.1206 6.76613L86.0133 7.2167ZM86.8322 6.32904L87.3544 7.18182C87.5478 7.06339 87.7716 7.00012 88.0005 7L88 6L87.9995 5C87.4033 5.00032 86.8183 5.16492 86.3099 5.47626L86.8322 6.32904ZM72.4733 29.2405L71.4754 29.1767C71.3198 31.6119 71.7146 34.0506 72.6308 36.3151L73.5578 35.94L74.4848 35.565C73.681 33.5783 73.3348 31.4395 73.4713 29.3043L72.4733 29.2405ZM73.5578 35.94L73.2575 36.8939C73.8354 37.0758 74.2254 37.1972 74.3295 37.2217L74.5578 36.2481L74.7861 35.2745C74.8064 35.2792 74.8054 35.2797 74.7487 35.2629C74.7045 35.2497 74.642 35.2307 74.5599 35.2055C74.3962 35.155 74.1626 35.0821 73.8581 34.9862L73.5578 35.94ZM74.5578 36.2481L74.319 37.2191C78.2455 38.1846 82.5786 37.7981 86.7028 35.1173L86.1578 34.2789L85.6128 33.4405C81.9992 35.7893 78.2434 36.1245 74.7965 35.277L74.5578 36.2481ZM86.1578 34.2789L86.7193 35.1063L87.2705 34.7323L86.7089 33.9049L86.1473 33.0774L85.5962 33.4515L86.1578 34.2789ZM86.7089 33.9049L87.2864 34.7213C92.2487 31.211 97.5074 30.6676 102.275 31.8397L102.513 30.8686L102.752 29.8975C97.4792 28.6011 91.6136 29.2105 86.1314 33.0885L86.7089 33.9049ZM102.513 30.8686L102.275 31.8398C102.642 31.9299 102.958 32.0174 103.226 32.1018L103.527 31.148L103.827 30.1943C103.509 30.0939 103.149 29.9951 102.752 29.8975L102.513 30.8686ZM103.527 31.148L104.525 31.2106C104.677 28.7747 104.279 26.336 103.36 24.0722L102.433 24.4485L101.507 24.8248C102.313 26.8109 102.662 28.9496 102.529 31.0855L103.527 31.148ZM102.433 24.4485L102.732 23.4942L101.741 23.1839L101.442 24.1383L101.144 25.0926L102.135 25.4028L102.433 24.4485ZM101.442 24.1383L101.681 23.1672C97.7566 22.2017 93.4234 22.5884 89.2971 25.2713L89.8422 26.1096L90.3873 26.948C94.0033 24.5969 97.759 24.2619 101.203 25.1093L101.442 24.1383ZM89.8422 26.1096L89.2807 25.2822L88.7295 25.6562L89.2911 26.4837L89.8527 27.3111L90.4038 26.9371L89.8422 26.1096ZM89.2911 26.4837L88.7137 25.6672C83.7537 29.1752 78.4948 29.7189 73.7249 28.5487L73.4867 29.5199L73.2484 30.4911C78.523 31.7851 84.3885 31.1759 89.8685 27.3001L89.2911 26.4837ZM73.4867 29.5199L73.7241 28.5485C73.4026 28.4699 73.0835 28.3819 72.7673 28.2847L72.4733 29.2405L72.1793 30.1963C72.533 30.3051 72.8897 30.4034 73.2492 30.4913L73.4867 29.5199ZM73.3956 24.8841L73.0904 25.8364C73.7717 26.0548 74.2154 26.1954 74.323 26.2214L74.5578 25.2494L74.7925 24.2773C74.8044 24.2802 74.7368 24.2607 74.5215 24.1931C74.3305 24.133 74.0572 24.0461 73.7007 23.9318L73.3956 24.8841ZM74.5578 25.2494L74.3196 26.2206C78.2456 27.1836 82.5786 26.7972 86.7028 24.1164L86.1578 23.278L85.6128 22.4396C81.9992 24.7884 78.2432 25.1237 74.796 24.2782L74.5578 25.2494ZM86.1578 23.278L86.7193 24.1054L87.2705 23.7314L86.7089 22.904L86.1473 22.0765L85.5962 22.4506L86.1578 23.278ZM86.7089 22.904L87.2864 23.7204C91.1245 21.0055 95.1317 20.0704 98.9436 20.3199L99.0089 19.3221L99.0742 18.3242C94.8195 18.0457 90.3555 19.0996 86.1314 22.0876L86.7089 22.904ZM99.0089 19.3221L99.7128 18.6118C97.7472 16.6638 95.3188 15.238 92.6519 14.4647L92.3734 15.4251L92.0949 16.3855C94.4423 17.0662 96.5778 18.3207 98.305 20.0324L99.0089 19.3221ZM92.3734 15.4251L92.6519 14.4647C89.985 13.6914 87.1647 13.5953 84.4506 14.1851L84.6629 15.1623L84.8753 16.1395C87.2646 15.6202 89.7475 15.7049 92.0949 16.3855L92.3734 15.4251ZM84.6629 15.1623L84.4506 14.1851C81.7364 14.775 79.215 16.032 77.1191 17.8413L77.7725 18.5983L78.4259 19.3552C80.2682 17.765 82.4861 16.6587 84.8753 16.1395L84.6629 15.1623ZM77.7725 18.5983L77.1191 17.8413C75.023 19.6506 73.4198 21.9541 72.4583 24.54L73.3956 24.8885L74.3329 25.2371C75.1765 22.9684 76.5837 20.9455 78.4259 19.3552L77.7725 18.5983ZM102.609 35.5088L102.908 34.5545L101.741 34.1892L101.442 35.1436L101.143 36.0979L102.31 36.4631L102.609 35.5088ZM101.442 35.1436L101.681 34.1725C97.7566 33.207 93.4234 33.5937 89.2971 36.2766L89.8422 37.1149L90.3873 37.9533C94.0033 35.6022 97.759 35.2672 101.203 36.1146L101.442 35.1436ZM89.8422 37.1149L89.2807 36.2875L88.7295 36.6615L89.2911 37.489L89.8527 38.3164L90.4038 37.9424L89.8422 37.1149ZM89.2911 37.489L88.7137 36.6725C84.8693 39.3916 80.8558 40.3245 77.0397 40.0709L76.9733 41.0686L76.907 42.0664C81.1664 42.3496 85.6374 41.298 89.8686 38.3054L89.2911 37.489ZM76.9733 41.0686L76.2683 41.7778C78.233 43.7313 80.6625 45.1622 83.3319 45.9392L83.6114 44.979L83.8909 44.0189C81.5413 43.335 79.4049 42.0761 77.6784 40.3595L76.9733 41.0686ZM83.6114 44.979L83.3319 45.9392C86.0012 46.7162 88.8251 46.8144 91.5427 46.225L91.3308 45.2477L91.1188 44.2705C88.7264 44.7893 86.2404 44.7028 83.8909 44.0189L83.6114 44.979ZM91.3308 45.2477L91.5427 46.225C94.2604 45.6356 96.7852 44.3773 98.8834 42.5654L98.2298 41.8086L97.5762 41.0517C95.732 42.6443 93.5112 43.7516 91.1188 44.2705L91.3308 45.2477ZM98.2298 41.8086L98.8834 42.5654C100.982 40.7535 102.586 38.4464 103.546 35.8566L102.609 35.5088L101.671 35.161C100.828 37.4331 99.4204 39.4592 97.5762 41.0517L98.2298 41.8086Z" fill="#E0AC5A" mask="url(#path-7-inside-3_4_507)"/>
<line x1="88" y1="-2.18557e-08" x2="88" y2="7" stroke="#E0AC5A"/>
<defs>
<linearGradient id="paint0_linear_4_507" x1="48.5" y1="30" x2="48.5" y2="62" gradientUnits="userSpaceOnUse">
<stop stop-color="#FAFAB2"/>
<stop offset="1" stop-color="#E7B254"/>
</linearGradient>
<linearGradient id="paint1_linear_4_507" x1="18.5" y1="6" x2="18.5" y2="38" gradientUnits="userSpaceOnUse">
<stop stop-color="#FAFAB2"/>
<stop offset="1" stop-color="#E7B254"/>
</linearGradient>
<linearGradient id="paint2_linear_4_507" x1="88" y1="6" x2="88" y2="50" gradientUnits="userSpaceOnUse">
<stop stop-color="#FAFAB2"/>
<stop offset="1" stop-color="#E7B254"/>
</linearGradient>
</defs>
</svg>
