<svg width="1212" height="92" viewBox="0 0 1212 92" fill="none" xmlns="http://www.w3.org/2000/svg">
<g clip-path="url(#clip0_20_14)">
<path d="M1102.17 10.886C1111.05 10.8729 1119.85 12.6959 1128.05 16.2508C1136.25 19.8058 1143.7 25.0227 1149.96 31.6025C1156.22 38.1823 1161.17 45.9943 1164.53 54.5881C1167.89 63.182 1169.58 72.3859 1169.5 81.6676V81.6741C1169.48 100.325 1162.37 118.197 1149.74 131.373C1137.11 144.547 1120.01 151.951 1102.17 151.977H1038.12V10.886H1102.17ZM1057.18 127.582V128.582H1058.18H1104.98C1116.93 128.582 1128.38 123.629 1136.81 114.828C1145.24 106.028 1149.97 94.1023 1149.97 81.6755C1149.97 69.2486 1145.24 57.3225 1136.81 48.523C1128.38 39.722 1116.93 34.7693 1104.98 34.7693H1058.18H1057.18V35.7693V127.582Z" stroke="white"/>
<path d="M82.9027 109.511V10.3969H102.431V151.976H82.9406C77.8357 143.366 65.5556 123.007 53.2791 102.655L53.274 102.646C40.753 81.8881 28.2367 61.1378 23.3253 52.8403L21.4647 49.697V53.3496V151.976H1V10.3969H20.964L81.0464 110.028L82.9027 113.106V109.511Z" stroke="white"/>
<path d="M156.24 22.5502C167.328 14.7196 180.384 10.4931 193.763 10.3979C202.696 10.3473 211.551 12.1379 219.822 15.6679C228.092 19.1981 235.616 24.3991 241.96 30.9745C248.305 37.55 253.344 45.3704 256.788 53.988C260.232 62.6056 262.011 71.8495 262.023 81.1887C262.023 95.1778 258.053 108.85 250.618 120.482C243.183 132.113 232.619 141.181 220.262 146.547C207.905 151.913 194.305 153.341 181.175 150.652C168.044 147.962 155.965 141.275 146.462 131.426C136.959 121.577 130.459 109.007 127.788 95.2986C125.117 81.5905 126.396 67.3644 131.462 54.4158C136.528 41.4676 145.152 30.3813 156.24 22.5502ZM175.271 127.675C181.13 130.208 187.412 131.512 193.757 131.512C200.102 131.512 206.384 130.208 212.243 127.676C218.102 125.143 223.423 121.432 227.904 116.757C232.384 112.082 235.935 106.535 238.358 100.432C240.78 94.3297 242.027 87.7904 242.027 81.1874C242.027 74.5845 240.78 68.0452 238.358 61.9427C235.935 55.8402 232.384 50.2925 227.904 45.6177C223.423 40.9427 218.102 37.2319 212.243 34.6994C206.384 32.1668 200.102 30.8627 193.757 30.8627C187.412 30.8627 181.13 32.1668 175.271 34.6994C169.412 37.2319 164.091 40.9427 159.61 45.6177C155.13 50.2925 151.579 55.8402 149.156 61.9427C146.734 68.0452 145.487 74.5845 145.487 81.1874C145.487 87.7904 146.734 94.3297 149.156 100.432C151.579 106.535 155.13 112.082 159.61 116.757C164.091 121.432 169.412 125.143 175.271 127.675Z" stroke="white"/>
<path d="M322.928 31.8384H285.083V11.862H382.77V31.8384H344.457H343.457V32.8384V151.976H323.928V32.8384V31.8384H322.928Z" stroke="white"/>
<path d="M406.299 151.977V10.8859H425.828V151.977H406.299Z" stroke="white"/>
<path d="M870.105 151.977V10.8859H889.634V151.977H870.105Z" stroke="white"/>
<path d="M826.562 10.398H847.045V151.489H827.517V50.9089V47.7537L825.699 50.3329L779.196 116.326H758.705L712.202 50.3329L710.385 47.7537V50.9089V151.977H689.958C684.853 143.367 672.572 123.007 660.295 102.653L660.291 102.647C647.77 81.8892 635.254 61.1389 630.343 52.8414L628.482 49.6981V53.3507V151.977H608.485V10.398H628.449L688.532 110.029L690.388 113.107V109.513V10.398H710.406L767.672 89.5873L767.972 90.0013H768.483C768.615 89.9927 768.821 89.9428 768.897 89.9121C768.945 89.8889 769.023 89.8446 769.054 89.8239C769.115 89.7827 769.159 89.7428 769.18 89.7239C769.225 89.6823 769.264 89.6405 769.288 89.6136C769.341 89.5548 769.403 89.4808 769.467 89.4016C769.598 89.2394 769.779 89.0065 770.002 88.7131C770.451 88.1239 771.092 87.2639 771.895 86.1746C773.504 83.9947 775.774 80.8827 778.484 77.1508C783.904 69.6864 791.086 59.7347 798.253 49.7841C805.419 39.8332 812.572 29.8824 817.932 22.4194C820.612 18.6879 822.844 15.5782 824.407 13.4015L826.22 10.8749L826.562 10.398Z" stroke="white"/>
<path d="M995.064 109.513V10.398H1014.59V151.977H994.627L934.545 52.8325L932.69 49.7711V53.3507V151.977H913.161V10.398H933.125L993.207 110.029L995.064 113.107V109.513Z" stroke="white"/>
<path d="M505.916 142.697L505.902 142.698C498.133 142.893 490.494 140.569 484.036 136.042L483.334 135.549L482.74 136.168L482.567 136.349H481.59H481.573H481.556C477.786 136.479 474.079 135.281 471.034 132.939C468.004 130.61 465.803 127.284 464.79 123.486L464.337 119.708V116.349V116.048L464.171 115.797C460.469 110.202 457.966 103.837 456.835 97.1364L456.81 96.987L456.742 96.8518C455.763 94.9151 454.445 93.1839 452.855 91.7481C450.678 88.6861 449.456 84.9927 449.361 81.1708C449.341 78.4774 449.933 75.8188 451.085 73.4131C451.961 71.5863 453.14 69.9458 454.562 68.5651L454.39 69.8188L454.381 69.8863V69.9545V74.8381C454.381 90.8166 461.579 104.768 476.298 116.163L476.331 116.189L476.366 116.211C484.393 121.417 493.659 124.181 503.118 124.186C519.883 124.186 533.743 116.161 544.66 100.312L544.677 100.286L544.694 100.259C548.039 94.682 549.866 88.2648 549.984 81.6932L549.985 81.6631L549.983 81.633C549.923 80.193 549.796 78.7584 549.605 77.3341C551.695 82.882 552.745 88.8286 552.664 94.8477V94.861C552.664 112.538 544.925 126.394 528.829 137.455C521.616 140.825 513.816 142.61 505.916 142.697Z" stroke="white"/>
<path d="M529.723 16.0635C527.886 15.8643 526.041 15.7509 524.193 15.7238L524.186 15.7237H524.178C507.88 15.7237 494.027 23.7489 483.114 39.0973L483.091 39.1294L483.071 39.1632C478.154 47.3784 475.514 56.8501 475.441 66.5292V66.5383V66.5474C475.528 74.7467 477.474 82.8098 481.122 90.0771C484.769 97.3407 490.012 103.605 496.428 108.355C502.547 113.129 509.961 115.767 517.611 115.885H517.645L517.68 115.883C519.247 115.799 520.805 115.619 522.347 115.344C519.02 116.804 515.51 117.797 511.908 118.285L504.955 118.768H504.058C496.643 118.702 489.351 116.755 482.812 113.094C476.271 109.432 470.678 104.163 466.516 97.7368C461.114 89.3947 458.233 79.5482 458.252 69.4723C458.325 61.1982 460.543 53.1014 464.668 46.0416L464.804 45.8079V45.5371V42.6252C464.928 39.2743 466.003 36.0411 467.889 33.3358C469.777 30.6263 472.391 28.5711 475.393 27.4252L475.427 27.4123L475.46 27.3969C476.924 26.7126 478.523 26.4097 480.121 26.5122L480.153 26.5142H480.185H482.993H483.249L483.474 26.3907L492.293 21.5475C493.755 21.0382 495.148 20.5344 496.477 20.0535C498.996 19.142 501.289 18.3123 503.403 17.682L503.745 17.5802L503.945 17.2856C505.437 15.0886 507.422 13.3137 509.722 12.114C512.018 10.9157 514.56 10.3271 517.122 10.3976C519.746 10.5157 522.32 11.1924 524.688 12.3877C526.545 13.3253 528.244 14.5669 529.723 16.0635Z" stroke="white"/>
<path d="M579.475 94.0734C579.714 92.0768 579.867 90.0695 579.935 88.0576V88.0409V88.0242C579.935 70.5774 572.266 56.6268 557.551 45.2341L557.518 45.2093L557.484 45.1871C549.602 40.0499 540.506 37.2878 531.206 37.2111L531.197 37.211C523.063 37.2158 515.058 39.3126 507.891 43.3131C500.723 47.3135 494.616 53.093 490.106 60.1365L490.102 60.1433L490.098 60.1501C486.664 65.7066 484.678 72.0974 484.333 78.693L484.332 78.7191V78.7452V81.1816C484.298 84.3632 484.677 87.5166 485.448 90.5595C481.996 83.6552 480.183 75.9187 480.248 68.0094V67.9993C480.235 61.5394 481.453 55.1422 483.829 49.1798C486.206 43.2174 489.693 37.8099 494.086 33.2703C498.479 28.7309 503.69 25.15 509.415 22.7334C515.141 20.3168 521.268 19.1121 527.441 19.188L527.452 19.1881C535.513 19.1958 543.421 21.5052 550.319 25.8702L550.564 26.0252H550.854H554.13C557.439 26.0252 560.263 26.9403 562.707 28.8106C565.164 30.6908 567.296 33.5822 569.123 37.6281C569.931 39.6233 570.228 41.8053 569.985 43.9593L569.979 44.0152V44.0714V46.0249V46.2978L570.117 46.5329C573.717 52.6357 576.364 59.2982 577.96 66.2709L578.042 66.6278L578.335 66.8476C580.303 68.3247 581.925 70.2547 583.074 72.4926C584.221 74.7255 584.865 77.2042 584.955 79.7396V81.1871V81.1949C584.976 83.8911 584.385 86.5526 583.231 88.9608C582.299 90.9058 581.022 92.6395 579.475 94.0734Z" stroke="white"/>
<path d="M517.216 151.978L517.188 151.977H517.16H515.786C513.314 151.826 510.899 151.134 508.696 149.945C507.037 149.05 505.527 147.888 504.219 146.503C504.928 146.569 505.638 146.618 506.35 146.65L506.373 146.651H506.395H509.672C524.092 146.651 536.522 139.61 547.419 126.261L547.449 126.225L547.475 126.186C553.455 117.277 556.769 106.725 557.005 95.86V95.8491V95.8383C557.005 78.3937 549.337 63.9428 533.661 52.5419L533.651 52.535L533.642 52.5284C528.898 49.2451 523.331 47.4835 517.631 47.467H517.628H515.288H515.273L515.259 47.4674C512.688 47.5422 510.147 47.9428 507.691 48.6519C514.29 44.9427 521.726 43.0139 529.314 43.1181L529.322 43.1183L529.33 43.1182C537.222 43.1026 544.987 45.2019 551.883 49.2182C558.78 53.2346 564.577 59.0348 568.716 66.0669L568.727 66.0855L568.738 66.1036C573.493 73.4395 576.046 82.0927 576.066 90.9569V93.384C575.865 101.489 573.653 109.398 569.647 116.338L569.514 116.57V116.838V118.791V118.806V118.82C569.626 122.723 568.455 126.544 566.204 129.649C563.952 132.753 560.758 134.953 557.156 135.893L557.098 135.909L557.042 135.931C555.514 136.534 553.895 136.841 552.263 136.838H552.261H550.857H550.612L550.394 136.951L542.936 140.842C538.702 142.701 534.374 144.314 529.969 145.673L529.651 145.771L529.455 146.041C528.03 148.006 526.167 149.572 524.034 150.606C521.901 151.639 519.56 152.11 517.216 151.978Z" stroke="white"/>
<path d="M1182.21 10.0119H1191.23C1194.06 10.0119 1196.13 10.6433 1197.45 11.9061C1198.8 13.1689 1199.48 14.9866 1199.48 17.3591C1199.48 19.5021 1198.95 21.1093 1197.89 22.1808C1196.82 23.2523 1195.49 23.8837 1193.87 24.075L1199.98 34.4071H1195.47L1189.64 24.4194H1186.5V34.4071H1182.21V10.0119ZM1186.5 20.631H1189.64C1190.3 20.631 1190.96 20.6118 1191.62 20.5736C1192.28 20.497 1192.86 20.344 1193.38 20.1144C1193.93 19.8848 1194.37 19.5404 1194.7 19.0812C1195.03 18.622 1195.19 17.9906 1195.19 17.1869C1195.19 16.3833 1195.03 15.7519 1194.7 15.2927C1194.37 14.8335 1193.93 14.4891 1193.38 14.2595C1192.86 14.0299 1192.28 13.896 1191.62 13.8577C1190.96 13.8194 1190.3 13.8003 1189.64 13.8003H1186.5V20.631ZM1169.61 22.353C1169.61 19.4064 1170.15 16.6512 1171.21 14.0873C1172.31 11.4852 1173.78 9.22741 1175.61 7.31405C1177.48 5.36244 1179.64 3.83176 1182.1 2.72201C1184.59 1.574 1187.25 1 1190.08 1C1192.9 1 1195.54 1.574 1198 2.72201C1200.49 3.83176 1202.66 5.36244 1204.49 7.31405C1206.36 9.22741 1207.83 11.4852 1208.89 14.0873C1209.99 16.6512 1210.54 19.4064 1210.54 22.353C1210.54 25.2996 1209.99 28.0739 1208.89 30.6761C1207.83 33.24 1206.36 35.4977 1204.49 37.4493C1202.66 39.3627 1200.49 40.8934 1198 42.0414C1195.54 43.1511 1192.9 43.706 1190.08 43.706C1187.25 43.706 1184.59 43.1511 1182.1 42.0414C1179.64 40.8934 1177.48 39.3627 1175.61 37.4493C1173.78 35.4977 1172.31 33.24 1171.21 30.6761C1170.15 28.0739 1169.61 25.2996 1169.61 22.353ZM1173.24 22.353C1173.24 24.7638 1173.68 27.0407 1174.56 29.1837C1175.44 31.3266 1176.64 33.2017 1178.14 34.8089C1179.68 36.3779 1181.48 37.6215 1183.53 38.5399C1185.58 39.4584 1187.77 39.9176 1190.08 39.9176C1192.39 39.9176 1194.57 39.4584 1196.62 38.5399C1198.68 37.6215 1200.45 36.3779 1201.96 34.8089C1203.5 33.2017 1204.71 31.3266 1205.59 29.1837C1206.47 27.0407 1206.91 24.7638 1206.91 22.353C1206.91 19.9422 1206.47 17.6653 1205.59 15.5223C1204.71 13.3794 1203.5 11.5234 1201.96 9.95448C1200.45 8.34726 1198.68 7.08445 1196.62 6.16605C1194.57 5.24764 1192.39 4.78843 1190.08 4.78843C1187.77 4.78843 1185.58 5.24764 1183.53 6.16605C1181.48 7.08445 1179.68 8.34726 1178.14 9.95448C1176.64 11.5234 1175.44 13.3794 1174.56 15.5223C1173.68 17.6653 1173.24 19.9422 1173.24 22.353Z" stroke="white"/>
</g>
<defs>
<clipPath id="clip0_20_14">
<rect width="1212" height="92" fill="white"/>
</clipPath>
</defs>
</svg>
