<svg width="20" height="20" viewBox="0 0 20 20" fill="none" xmlns="http://www.w3.org/2000/svg">
<path d="M7.72504 12.8379L14.3741 7.71911C14.7 7.46817 15.166 7.56604 15.3213 7.95586C16.1388 10.0115 15.7735 12.482 14.1471 14.1782C12.5207 15.8743 10.2577 16.2463 8.18927 15.3991L5.92969 16.4901C9.17059 18.8003 13.1061 18.229 15.5653 15.6625C17.516 13.6282 18.1202 10.8552 17.5553 8.35454L17.5604 8.35985C16.7412 4.68629 17.7618 3.21794 19.8524 0.215359C19.9018 0.144167 19.9513 0.0729729 20.0008 0L17.2497 2.86909V2.86019L7.72336 12.8397" fill="#5D3E35"/>
<path d="M6.35211 14.0818C4.02595 11.7645 4.42701 8.1781 6.41181 6.10998C7.8795 4.57931 10.2842 3.9546 12.3833 4.87299L14.6378 3.78729C14.2316 3.48116 13.7111 3.15189 13.1138 2.92051C10.4139 1.76184 7.18151 2.33851 4.98678 4.62559C2.87568 6.82723 2.2118 10.2125 3.35183 13.1012C4.20344 15.2601 2.80741 16.7871 1.40115 18.3285C0.902807 18.8749 0.402763 19.4213 0 19.9998L6.35037 14.0836" fill="#5D3E35"/>
</svg>
